Jump_normalized_precision_landing02_filtered_grf
version=1
nRows=22
nColumns=37
inDegrees=yes
endheader
time		1_ground_force_vx		1_ground_force_vy		1_ground_force_vz		1_ground_force_px		1_ground_force_py		1_ground_force_pz		1_ground_torque_x		1_ground_torque_y		1_ground_torque_z		2_ground_force_vx		2_ground_force_vy		2_ground_force_vz		2_ground_force_px		2_ground_force_py		2_ground_force_pz		2_ground_torque_x		2_ground_torque_y		2_ground_torque_z		3_ground_force_vx		3_ground_force_vy		3_ground_force_vz		3_ground_force_px		3_ground_force_py		3_ground_force_pz		3_ground_torque_x		3_ground_torque_y		3_ground_torque_z		4_ground_force_vx		4_ground_force_vy		4_ground_force_vz		4_ground_force_px		4_ground_force_py		4_ground_force_pz		4_ground_torque_x		4_ground_torque_y		4_ground_torque_z		
0.342000		-0.000000		0.000000		0.000000		0.070722		0.000000		0.245450		0.000000		0.000000		-0.000000		0.000000		-0.000000		-0.000000		-0.174813		0.000000		0.268225		-0.000000		-0.000000		-0.000000		-43.596201		705.454734		97.825154		0.381182		1.273530		1.885048		2.618014		-42.363557		-5.874539		66.867308		618.906651		93.290448		-0.352342		1.266787		1.874905		4.167543		38.573711		5.814380		
0.344348		-0.000000		0.000000		0.000000		0.070722		0.000000		0.245450		0.000000		0.000000		-0.000000		0.000000		0.000000		0.000000		-0.174813		0.000000		0.268225		0.000000		-0.000000		0.000000		-43.526410		707.035635		97.146648		0.381144		1.273517		1.885063		2.619644		-42.553049		-5.846785		66.770527		620.084215		92.188787		-0.352374		1.266794		1.874933		4.171663		38.741391		5.759735		
0.346697		-0.000000		0.000000		0.000000		0.070722		0.000000		0.245450		0.000000		0.000000		-0.000000		0.000000		0.000000		0.000000		-0.174813		0.000000		0.268225		0.000000		-0.000000		0.000000		-43.438384		708.506761		96.541883		0.381098		1.273499		1.885070		2.620607		-42.743716		-5.824303		66.631449		621.033113		91.105892		-0.352410		1.266793		1.874959		4.173514		38.898908		5.706489		
0.349045		0.000000		0.000000		0.000000		0.070722		0.000000		0.245450		0.000000		0.000000		-0.000000		0.000000		0.000000		0.000000		-0.174813		0.000000		0.268225		0.000000		-0.000000		0.000000		-43.340570		709.837100		95.964071		0.381048		1.273478		1.885075		2.621173		-42.929882		-5.803763		66.462337		621.748650		90.029328		-0.352446		1.266786		1.874983		4.173636		39.043962		5.653572		
0.351394		0.000000		0.000000		0.000000		0.070722		0.000000		0.245450		0.000000		0.000000		-0.000000		0.000000		0.000000		0.000000		-0.174813		0.000000		0.268225		0.000000		-0.000000		0.000000		-43.226916		710.975715		95.332988		0.380998		1.273453		1.885086		2.620720		-43.104350		-5.779755		66.269260		622.224012		88.950750		-0.352481		1.266773		1.875010		4.172170		39.173890		5.600147		
0.353742		0.000000		-0.000000		0.000000		0.070722		0.000000		0.245450		-0.000000		-0.000000		0.000000		0.000000		0.000000		0.000000		-0.174813		0.000000		0.268225		0.000000		-0.000000		0.000000		-43.072579		711.859103		94.547205		0.380954		1.273428		1.885111		2.617527		-43.259795		-5.745648		66.051733		622.455901		87.870989		-0.352512		1.266754		1.875040		4.168870		39.286447		5.545996		
0.356091		0.000000		-0.000000		-0.000000		0.070722		0.000000		0.245450		-0.000000		-0.000000		0.000000		-0.000000		0.000000		0.000000		-0.174813		0.000000		0.268225		0.000000		-0.000000		0.000000		-42.837855		712.417793		93.501085		0.380917		1.273404		1.885157		2.609051		-43.389993		-5.694707		65.802816		622.438609		86.805060		-0.352539		1.266733		1.875075		4.163174		39.380081		5.491931		
0.358439		0.000000		-0.000000		-0.000000		0.070722		0.000000		0.245450		-0.000000		-0.000000		0.000000		-0.000000		0.000000		0.000000		-0.174813		0.000000		0.268225		0.000000		-0.000000		0.000000		-42.477713		712.583552		92.100764		0.380890		1.273383		1.885228		2.592512		-43.490598		-5.621119		65.509967		622.158818		85.787320		-0.352565		1.266709		1.875114		4.154297		39.454035		5.440180		
0.360788		0.000000		-0.000000		-0.000000		0.070722		0.000000		0.245450		-0.000000		-0.000000		0.000000		-0.000000		-0.000000		-0.000000		-0.174813		0.000000		0.268225		-0.000000		0.000000		-0.000000		-41.955334		712.307215		90.284623		0.380870		1.273369		1.885324		2.565734		-43.560419		-5.521261		65.156854		621.597253		84.872621		-0.352593		1.266684		1.875156		4.141360		39.508635		5.394491		
0.363136		0.000000		-0.000000		-0.000000		0.070722		0.000000		0.245450		-0.000000		-0.000000		0.000000		-0.000000		-0.000000		-0.000000		-0.174813		0.000000		0.268225		-0.000000		0.000000		-0.000000		-41.254252		711.577507		88.043086		0.380856		1.273363		1.885444		2.527869		-43.602173		-5.394870		64.726274		620.733362		84.131154		-0.352630		1.266656		1.875196		4.123531		39.545202		5.359762		
0.365485		-0.000000		-0.000000		-0.000000		0.070722		0.000000		0.245450		-0.000000		-0.000000		0.000000		-0.000000		-0.000000		-0.000000		-0.174813		0.000000		0.268225		-0.000000		0.000000		-0.000000		-40.378665		710.419079		85.418256		0.380844		1.273365		1.885584		2.479344		-43.621379		-5.244879		64.201989		619.545156		83.636107		-0.352681		1.266628		1.875228		4.100057		39.565296		5.341156		
0.367833		-0.000000		-0.000000		-0.000000		0.070722		0.000000		0.245450		-0.000000		-0.000000		0.000000		-0.000000		-0.000000		-0.000000		-0.174813		0.000000		0.268225		-0.000000		0.000000		-0.000000		-39.352333		708.894782		82.499594		0.380830		1.273376		1.885739		2.421748		-43.625498		-5.077034		63.571910		618.016221		83.444064		-0.352752		1.266597		1.875248		4.070389		39.570419		5.342767		
0.370182		-0.000000		0.000000		-0.000000		0.070722		0.000000		0.245450		0.000000		0.000000		-0.000000		-0.000000		-0.000000		-0.000000		-0.174813		0.000000		0.268225		-0.000000		0.000000		-0.000000		-38.217465		707.107326		79.414355		0.380810		1.273394		1.885902		2.357704		-43.622758		-4.899214		62.834604		616.152931		83.573705		-0.352849		1.266561		1.875252		4.034498		39.562094		5.366122		
0.372530		-0.000000		0.000000		0.000000		0.070722		0.000000		0.245450		0.000000		0.000000		-0.000000		0.000000		-0.000000		-0.000000		-0.174813		0.000000		0.268225		-0.000000		0.000000		-0.000000		-37.020930		705.165926		76.293070		0.380782		1.273418		1.886069		2.290032		-43.619993		-4.719318		62.000451		613.979193		83.981981		-0.352969		1.266522		1.875239		3.992948		39.541441		5.408601		
0.374879		-0.000000		0.000000		0.000000		0.070722		0.000000		0.245450		0.000000		0.000000		-0.000000		0.000000		-0.000000		-0.000000		-0.174813		0.000000		0.268225		-0.000000		-0.000000		0.000000		-35.808641		703.168883		73.251491		0.380745		1.273447		1.886234		2.221420		-43.621713		-4.544217		61.094801		611.541060		84.548611		-0.353105		1.266481		1.875214		3.947124		39.509570		5.462397		
0.377227		-0.000000		0.000000		0.000000		0.070722		0.000000		0.245450		0.000000		0.000000		-0.000000		0.000000		0.000000		0.000000		-0.174813		0.000000		0.268225		0.000000		-0.000000		0.000000		-34.619259		701.182656		70.355672		0.380704		1.273477		1.886392		2.154082		-43.629094		-4.377675		60.162314		608.917518		85.041323		-0.353241		1.266441		1.875187		3.899582		39.468640		5.512186		
0.379576		0.000000		0.000000		0.000000		0.070722		0.000000		0.245450		0.000000		0.000000		-0.000000		0.000000		0.000000		0.000000		-0.174813		0.000000		0.268225		0.000000		-0.000000		0.000000		-33.478493		699.224545		67.616065		0.380661		1.273506		1.886541		2.089458		-43.639980		-4.220049		59.254094		606.196945		85.200953		-0.353360		1.266410		1.875169		3.853333		39.421392		5.540676		
0.381924		0.000000		0.000000		0.000000		0.070722		0.000000		0.245450		0.000000		0.000000		-0.000000		0.000000		0.000000		0.000000		-0.174813		0.000000		0.268225		0.000000		-0.000000		0.000000		-32.398554		697.262082		64.994499		0.380620		1.273533		1.886677		2.028196		-43.649621		-4.068748		58.419159		603.463867		84.775399		-0.353443		1.266393		1.875172		3.811367		39.371039		5.530895		
0.384273		0.000000		0.000000		0.000000		0.070722		0.000000		0.245450		0.000000		0.000000		-0.000000		0.000000		0.000000		0.000000		-0.174813		0.000000		0.268225		0.000000		-0.000000		0.000000		-31.377947		695.221893		62.417915		0.380588		1.273559		1.886799		1.970171		-43.651914		-3.919119		57.691850		600.782576		83.570906		-0.353474		1.266397		1.875203		3.775892		39.320818		5.469657		
0.386621		0.000000		-0.000000		-0.000000		0.070722		0.000000		0.245450		-0.000000		-0.000000		0.000000		0.000000		0.000000		0.000000		-0.174813		0.000000		0.268225		0.000000		-0.000000		0.000000		-30.406039		693.011643		59.804355		0.380566		1.273581		1.886905		1.914763		-43.641131		-3.766065		57.081320		598.181657		81.494447		-0.353450		1.266426		1.875265		3.747622		39.273079		5.350441		
0.388970		0.000000		-0.000000		-0.000000		0.070722		0.000000		0.245450		-0.000000		-0.000000		0.000000		-0.000000		0.000000		0.000000		-0.174813		0.000000		0.268225		0.000000		-0.000000		0.000000		-29.470622		690.539572		57.084905		0.380556		1.273601		1.886998		1.861296		-43.612867		-3.605348		56.569969		595.650473		78.573285		-0.353369		1.266481		1.875355		3.725608		39.228588		5.174709		
0.391318		0.000000		-0.000000		-0.000000		0.070722		0.000000		0.245450		-0.000000		-0.000000		0.000000		-0.000000		-0.000000		0.000000		-0.174813		0.000000		0.268225		-0.000000		0.000000		-0.000000		-28.563597		687.730854		54.217035		0.380560		1.273618		1.887077		1.809363		-43.564400		-3.434380		56.118620		593.147721		74.947430		-0.353242		1.266561		1.875463		3.707503		39.186586		4.951430		
